<?xml version="1.0" encoding="utf-8"?>
<!-- Generator: Adobe Illustrator 19.0.0, SVG Export Plug-In . SVG Version: 6.00 Build 0)  -->
<svg version="1.1" id="Capa_1" xmlns="http://www.w3.org/2000/svg" xmlns:xlink="http://www.w3.org/1999/xlink" x="0px" y="0px"
	 viewBox="-364 209.7 294.9 351.3" style="enable-background:new -364 209.7 294.9 351.3;" xml:space="preserve">
<style type="text/css">
	.st0{fill:#00A815;}
</style>
<g>
	<path class="st0" d="M-349.3,218.3v119.6l38.7-27.4l38.7,27.4v-61.6l0,0v-58C-271.9,218.3-349.3,218.3-349.3,218.3z M-289.7,286.1
		h-40.7v-6.4h40.7V286.1z M-285.9,257.8l-4,17h-40.4l-4.7-17c-2.7,0.4-5-1.8-5-4.4c0-2.5,2-4.5,4.5-4.5s4.5,2,4.5,4.5
		c0,0.3,0,0.6-0.1,0.9l11.2,4.2l6.2-8.2c-0.8-0.8-1.3-1.9-1.3-3.1c0-2.5,2-4.5,4.5-4.5s4.5,2,4.5,4.5c0,1.1-0.4,2.2-1.2,3l6.5,8.3
		l10.8-4.1c-0.1-0.4-0.1-0.7-0.1-1.1c0-2.5,2-4.5,4.5-4.5s4.5,2,4.5,4.5C-281.1,255.9-283.2,258-285.9,257.8"/>
	<path class="st0" d="M-135.7,454.7L-135.7,454.7L-135.7,454.7l-11.5-18.7c-0.5-0.8-1.1-1.6-1.6-2.4l-15.5-25.1h-0.1
		c7.1-3.4,13.7-7.3,19.6-11.9c8.3-6.4,15.4-13.7,21.1-21.9c5.7-8.2,10-17.1,12.9-26.7c2.9-9.6,4.4-19.9,4.4-30.7
		c0-14.2-2.4-27.3-7.3-39.4c-4.9-12.1-12.7-22.5-23.5-31.4c-10.8-8.9-24.7-15.8-41.7-20.8s-37.6-7.4-61.8-7.4h-17.6v58h17.6
		c20,0,34.8,4.1,44.3,12.4c9.5,8.2,14.3,19.7,14.3,34.4c0,7.3-1.1,14.2-3.2,20.5c-2.1,6.3-5.6,11.9-10.3,16.6s-10.8,8.4-18.2,11.1
		c-7.4,2.7-16.4,4-26.9,4h-31.1h-77.5v176.9h77.4V428.6h19.7c6,0,10.6,0.9,13.9,2.8c3.3,1.8,6.2,4.9,8.6,9.2l50.8,88.7l12.2,22.9
		h20.5h10.5h59.6L-135.7,454.7z"/>
</g>
</svg>
