<?xml version="1.0" encoding="utf-8"?>
<!-- Generator: Adobe Illustrator 19.0.0, SVG Export Plug-In . SVG Version: 6.00 Build 0)  -->
<svg version="1.1" id="Capa_1" xmlns="http://www.w3.org/2000/svg" xmlns:xlink="http://www.w3.org/1999/xlink" x="0px" y="0px"
	 viewBox="0 0 294.9 351.3" style="enable-background:new 0 0 294.9 351.3;" xml:space="preserve">
<style type="text/css">
	.st0{fill:#FFFFFF;}
</style>
<g>
	<path class="st0" d="M14.7,8.6v119.6l38.7-27.4l38.7,27.4V66.6h0v-58H14.7z M74.3,76.4H33.6V70h40.7V76.4z M78.1,48.1l-4,17H33.7
		L29,48.1c-2.7,0.4-5-1.8-5-4.4c0-2.5,2-4.5,4.5-4.5c2.5,0,4.5,2,4.5,4.5c0,0.3,0,0.6-0.1,0.9l11.2,4.2l6.2-8.2
		c-0.8-0.8-1.3-1.9-1.3-3.1c0-2.5,2-4.5,4.5-4.5c2.5,0,4.5,2,4.5,4.5c0,1.1-0.4,2.2-1.2,3l6.5,8.3l10.8-4.1C74,44.3,74,44,74,43.6
		c0-2.5,2-4.5,4.5-4.5c2.5,0,4.5,2,4.5,4.5C82.9,46.2,80.8,48.3,78.1,48.1"/>
	<path class="st0" d="M228.3,245L228.3,245L228.3,245l-11.5-18.7c-0.5-0.8-1.1-1.6-1.6-2.4l-15.5-25.1h-0.1
		c7.1-3.4,13.7-7.3,19.6-11.9c8.3-6.4,15.4-13.7,21.1-21.9c5.7-8.2,10-17.1,12.9-26.7c2.9-9.6,4.4-19.9,4.4-30.7
		c0-14.2-2.4-27.3-7.3-39.4c-4.9-12.1-12.7-22.5-23.5-31.4C216,27.9,202.1,21,185.1,16c-17-5-37.6-7.4-61.8-7.4h-17.6v58h17.6
		c20,0,34.8,4.1,44.3,12.4c9.5,8.2,14.3,19.7,14.3,34.4c0,7.3-1.1,14.2-3.2,20.5c-2.1,6.3-5.6,11.9-10.3,16.6
		c-4.7,4.7-10.8,8.4-18.2,11.1c-7.4,2.7-16.4,4-26.9,4H92.2H14.7v176.9h77.4V218.9h19.7c6,0,10.6,0.9,13.9,2.8
		c3.3,1.8,6.2,4.9,8.6,9.2l50.8,88.7l12.2,22.9h20.5h10.5h59.6L228.3,245z"/>
</g>
</svg>
